<svg width="32" height="32" viewBox="0 0 32 32" fill="none" xmlns="http://www.w3.org/2000/svg">
<path d="M18.6667 7.99996C18.6667 7.64634 18.5262 7.3072 18.2761 7.05715C18.0261 6.8071 17.687 6.66663 17.3333 6.66663H14.6667C14.313 6.66663 13.9739 6.8071 13.7239 7.05715C13.4738 7.3072 13.3333 7.64634 13.3333 7.99996V16C13.3333 16.3536 13.4738 16.6927 13.7239 16.9428C13.9739 17.1928 14.313 17.3333 14.6667 17.3333H17.3333C17.687 17.3333 18.0261 17.1928 18.2761 16.9428C18.5262 16.6927 18.6667 16.3536 18.6667 16V13.3333C18.6667 12.9797 18.5262 12.6405 18.2761 12.3905C18.0261 12.1404 17.687 12 17.3333 12H13.3333M4 6.66663H7.33333C7.86377 6.66663 8.37247 6.87734 8.74755 7.25241C9.12262 7.62748 9.33333 8.13619 9.33333 8.66663V9.99996C9.33333 10.5304 9.12262 11.0391 8.74755 11.4142C8.37247 11.7892 7.86377 12 7.33333 12M7.33333 12H5.33333M7.33333 12C7.86377 12 8.37247 12.2107 8.74755 12.5857C9.12262 12.9608 9.33333 13.4695 9.33333 14V15.3333C9.33333 15.8637 9.12262 16.3724 8.74755 16.7475C8.37247 17.1226 7.86377 17.3333 7.33333 17.3333H4M4 21.3333C4 23.5426 9.37333 25.3333 16 25.3333C22.6267 25.3333 28 23.5426 28 21.3333M22.6667 9.33329V14.6666C22.6667 15.3739 22.9476 16.0521 23.4477 16.5522C23.9478 17.0523 24.6261 17.3333 25.3333 17.3333C26.0406 17.3333 26.7189 17.0523 27.219 16.5522C27.719 16.0521 28 15.3739 28 14.6666V9.33329C28 8.62605 27.719 7.94777 27.219 7.44767C26.7189 6.94758 26.0406 6.66663 25.3333 6.66663C24.6261 6.66663 23.9478 6.94758 23.4477 7.44767C22.9476 7.94777 22.6667 8.62605 22.6667 9.33329Z" stroke="#89ACF2" stroke-width="2.5" stroke-linecap="round" stroke-linejoin="round"/>
</svg>
