<svg width="16" height="18" viewBox="0 0 16 18" fill="none" xmlns="http://www.w3.org/2000/svg">
<path d="M1.00012 9.52194C1.00012 10.9064 1.41066 12.2598 2.17983 13.4109C2.94899 14.562 4.04224 15.4593 5.32132 15.9891C6.60039 16.5189 8.00785 16.6575 9.36571 16.3874C10.7236 16.1173 11.9708 15.4506 12.9498 14.4717C13.9288 13.4927 14.5955 12.2454 14.8655 10.8876C15.1356 9.52971 14.997 8.12225 14.4672 6.84317C13.9374 5.56409 13.0402 4.47085 11.8891 3.70168C10.7379 2.93252 9.38455 2.52198 8.00009 2.52198C5.99484 2.51976 4.06604 3.29128 2.6155 4.67581" stroke="#014E86" stroke-width="1.5" stroke-linecap="round" stroke-linejoin="round"/>
<path d="M2.61561 0.906738L1.5387 5.21441L5.84637 6.29133" stroke="#014E86" stroke-width="1.5" stroke-linecap="round" stroke-linejoin="round"/>
</svg>
