<svg width="20" height="20" viewBox="0 0 20 20" fill="none" xmlns="http://www.w3.org/2000/svg">
<g clip-path="url(#clip0_1017_338)">
<path d="M5.71436 11.4286L8.64293 13.7714C8.72158 13.8362 8.81367 13.8826 8.91252 13.9073C9.01137 13.9321 9.11448 13.9344 9.21435 13.9143C9.31519 13.8954 9.41076 13.855 9.49458 13.7958C9.57839 13.7366 9.64848 13.6601 9.70007 13.5714L14.2858 5.71429" stroke="white" stroke-width="1.5" stroke-linecap="round" stroke-linejoin="round"/>
<path d="M10.0001 19.2857C15.1284 19.2857 19.2858 15.1284 19.2858 10C19.2858 4.87165 15.1284 0.714294 10.0001 0.714294C4.87171 0.714294 0.714355 4.87165 0.714355 10C0.714355 15.1284 4.87171 19.2857 10.0001 19.2857Z" stroke="white" stroke-width="1.5" stroke-linecap="round" stroke-linejoin="round"/>
</g>
<defs>
<clipPath id="clip0_1017_338">
<rect width="20" height="20" fill="white"/>
</clipPath>
</defs>
</svg>
