<svg width="18" height="16" viewBox="0 0 18 16" fill="none" xmlns="http://www.w3.org/2000/svg">
<path d="M5.5 16C6.32843 16 7 15.3284 7 14.5C7 13.6716 6.32843 13 5.5 13C4.67157 13 4 13.6716 4 14.5C4 15.3284 4.67157 16 5.5 16Z" fill="#014E86"/>
<path d="M14.5 16C15.3284 16 16 15.3284 16 14.5C16 13.6716 15.3284 13 14.5 13C13.6716 13 13 13.6716 13 14.5C13 15.3284 13.6716 16 14.5 16Z" fill="#014E86"/>
<path d="M1 1H3L3.6 4M3.6 4L5 11H15L17 4H3.6Z" stroke="#014E86" stroke-width="2" stroke-linecap="round" stroke-linejoin="round"/>
</svg>
