<svg width="34" height="34" viewBox="0 0 34 34" fill="none" xmlns="http://www.w3.org/2000/svg">
<path d="M29.7502 29.75L23.395 23.3835M14.8752 9.91668V14.875M14.8752 14.875V19.8333M14.8752 14.875H19.8335M14.8752 14.875H9.91683M26.9168 14.875C26.9168 18.0687 25.6482 21.1315 23.3899 23.3898C21.1317 25.648 18.0688 26.9167 14.8752 26.9167C11.6815 26.9167 8.61867 25.648 6.36042 23.3898C4.10217 21.1315 2.8335 18.0687 2.8335 14.875C2.8335 11.6814 4.10217 8.61852 6.36042 6.36027C8.61867 4.10202 11.6815 2.83334 14.8752 2.83334C18.0688 2.83334 21.1317 4.10202 23.3899 6.36027C25.6482 8.61852 26.9168 11.6814 26.9168 14.875V14.875Z" stroke="white" stroke-width="2" stroke-linecap="round"/>
</svg>
