<svg width="20" height="20" viewBox="0 0 20 20" fill="none" xmlns="http://www.w3.org/2000/svg">
<mask id="mask0_315_3875" style="mask-type:luminance" maskUnits="userSpaceOnUse" x="2" y="2" width="17" height="16">
<path d="M10.0002 17C10.9197 17.0012 11.8303 16.8207 12.6797 16.4688C13.5291 16.1169 14.3007 15.6007 14.9499 14.9497C15.6009 14.3004 16.1172 13.5289 16.469 12.6795C16.8209 11.83 17.0014 10.9194 17.0002 10C17.0014 9.08057 16.8209 8.16998 16.469 7.32055C16.1172 6.47112 15.6009 5.69959 14.9499 5.0503C14.3007 4.39931 13.5291 3.88305 12.6797 3.5312C11.8303 3.17934 10.9197 2.99881 10.0002 3.00001C9.08082 2.99883 8.17023 3.17936 7.32079 3.53122C6.47136 3.88308 5.69983 4.39933 5.05055 5.0503C4.39957 5.69959 3.88332 6.47112 3.53147 7.32055C3.17961 8.16998 2.99908 9.08057 3.00025 10C2.99906 10.9194 3.17958 11.83 3.53144 12.6795C3.8833 13.5289 4.39956 14.3004 5.05055 14.9497C5.69983 15.6007 6.47136 16.1169 7.32079 16.4688C8.17023 16.8206 9.08082 17.0012 10.0002 17Z" fill="white" stroke="white" stroke-width="2" stroke-linejoin="round"/>
<path d="M7.19995 10L9.29995 12.1L13.4999 7.90002" stroke="black" stroke-width="2" stroke-linecap="round" stroke-linejoin="round"/>
</mask>
<g mask="url(#mask0_315_3875)">
<path d="M1.44458 1.44446H18.5555V18.5554H1.44458V1.44446Z" fill="#54BF3C"/>
</g>
</svg>
