<svg width="12" height="12" viewBox="0 0 12 12" fill="none" xmlns="http://www.w3.org/2000/svg">
<path d="M9.74837 3.99451L5.99987 7.64851L2.25137 3.99451C2.1844 3.9291 2.09449 3.89247 2.00087 3.89247C1.90725 3.89247 1.81735 3.9291 1.75037 3.99451C1.71795 4.02629 1.69218 4.06421 1.6746 4.10607C1.65701 4.14792 1.64795 4.19286 1.64795 4.23826C1.64795 4.28366 1.65701 4.32861 1.6746 4.37046C1.69218 4.41232 1.71795 4.45024 1.75037 4.48201L5.73812 8.37001C5.80815 8.43827 5.90208 8.47648 5.99987 8.47648C6.09767 8.47648 6.19159 8.43827 6.26162 8.37001L10.2494 4.48276C10.282 4.45097 10.308 4.41295 10.3257 4.37096C10.3434 4.32896 10.3526 4.28384 10.3526 4.23826C10.3526 4.19268 10.3434 4.14756 10.3257 4.10557C10.308 4.06358 10.282 4.02556 10.2494 3.99376C10.1824 3.92835 10.0925 3.89172 9.99887 3.89172C9.90525 3.89172 9.81535 3.92835 9.74837 3.99376V3.99451Z" fill="#827F7F"/>
</svg>
