<svg width="19" height="15" viewBox="0 0 19 15" fill="none" xmlns="http://www.w3.org/2000/svg">
<path d="M10.5949 14.655C10.4545 14.5144 10.3756 14.3238 10.3756 14.125C10.3756 13.9263 10.4545 13.7356 10.5949 13.595L15.5649 8.62502L1.12493 8.62502C0.926016 8.62502 0.735248 8.546 0.594597 8.40535C0.453945 8.2647 0.374927 8.07393 0.374927 7.87502C0.374927 7.67611 0.453945 7.48534 0.594597 7.34469C0.735248 7.20404 0.926016 7.12502 1.12493 7.12502L15.5649 7.12502L10.5949 2.15502C10.4962 2.06335 10.424 1.94675 10.386 1.8175C10.348 1.68825 10.3456 1.55114 10.3789 1.42061C10.4123 1.29009 10.4803 1.17098 10.5756 1.07584C10.671 0.980705 10.7903 0.913054 10.9209 0.88002C11.0513 0.846604 11.1883 0.848935 11.3174 0.886769C11.4466 0.924603 11.5632 0.996541 11.6549 1.09502L17.9049 7.34502C18.0454 7.48565 18.1243 7.67627 18.1243 7.87502C18.1243 8.07377 18.0454 8.26439 17.9049 8.40502L11.6549 14.655C11.5143 14.7955 11.3237 14.8744 11.1249 14.8744C10.9262 14.8744 10.7356 14.7955 10.5949 14.655Z" fill="#014E86"/>
</svg>
