<svg width="30" height="30" viewBox="0 0 30 30" fill="none" xmlns="http://www.w3.org/2000/svg">
<path d="M15 3.75H5.625C5.12772 3.75 4.65081 3.94754 4.29917 4.29917C3.94754 4.65081 3.75 5.12772 3.75 5.625V19.375C3.75 19.8723 3.94754 20.3492 4.29917 20.7008C4.65081 21.0525 5.12772 21.25 5.625 21.25H24.375C24.8723 21.25 25.3492 21.0525 25.7008 20.7008C26.0525 20.3492 26.25 19.8723 26.25 19.375V16.25M15 21.25V26.25M8.75 26.25H21.25" stroke="#014E86" stroke-width="2" stroke-linecap="round" stroke-linejoin="round"/>
<path d="M23.125 10C24.1605 10 25 9.16053 25 8.125C25 7.08947 24.1605 6.25 23.125 6.25C22.0895 6.25 21.25 7.08947 21.25 8.125C21.25 9.16053 22.0895 10 23.125 10Z" stroke="#014E86" stroke-width="2"/>
<path d="M23.1249 12.5V10M23.1249 6.25V3.75M19.3362 10.3125L21.5012 9.0625M24.7487 7.1875L26.9137 5.9375M19.3362 5.9375L21.5012 7.1875M24.7487 9.0625L26.9137 10.3125" stroke="#014E86" stroke-width="2" stroke-linecap="round" stroke-linejoin="round"/>
</svg>
