<svg width="19" height="15" viewBox="0 0 19 15" fill="none" xmlns="http://www.w3.org/2000/svg">
<path d="M8.40495 0.344979C8.5454 0.485604 8.62429 0.67623 8.62429 0.87498C8.62429 1.07373 8.5454 1.26436 8.40495 1.40498L3.43495 6.37498L17.875 6.37498C18.0739 6.37498 18.2646 6.454 18.4053 6.59465C18.5459 6.7353 18.625 6.92607 18.625 7.12498C18.625 7.32389 18.5459 7.51466 18.4053 7.65531C18.2646 7.79596 18.0739 7.87498 17.875 7.87498L3.43495 7.87498L8.40495 12.845C8.50367 12.9367 8.57585 13.0533 8.61386 13.1825C8.65187 13.3118 8.65432 13.4489 8.62095 13.5794C8.58758 13.7099 8.51962 13.829 8.42423 13.9242C8.32884 14.0193 8.20956 14.0869 8.07895 14.12C7.94857 14.1534 7.8116 14.1511 7.68244 14.1132C7.55328 14.0754 7.43669 14.0035 7.34495 13.905L1.09495 7.65498C0.9545 7.51435 0.87561 7.32373 0.87561 7.12498C0.87561 6.92623 0.9545 6.73561 1.09495 6.59498L7.34495 0.344979C7.48558 0.204529 7.6762 0.12564 7.87495 0.12564C8.0737 0.12564 8.26432 0.204529 8.40495 0.344979Z" fill="#C8C8C8"/>
</svg>
