<svg width="30" height="30" viewBox="0 0 30 30" fill="none" xmlns="http://www.w3.org/2000/svg">
<path d="M26.25 26.25L20.8212 20.8213M20.8212 20.8213C21.7499 19.8927 22.4865 18.7902 22.989 17.5769C23.4916 16.3637 23.7503 15.0633 23.7503 13.75C23.7503 12.4368 23.4916 11.1364 22.989 9.92308C22.4865 8.70979 21.7499 7.60737 20.8212 6.67876C19.8926 5.75015 18.7902 5.01354 17.5769 4.51098C16.3636 4.00842 15.0632 3.74976 13.75 3.74976C12.4367 3.74976 11.1364 4.00842 9.92306 4.51098C8.70978 5.01354 7.60736 5.75015 6.67875 6.67876C4.80334 8.55418 3.74974 11.0978 3.74974 13.75C3.74974 16.4022 4.80334 18.9458 6.67875 20.8213C8.55416 22.6967 11.0978 23.7503 13.75 23.7503C16.4022 23.7503 18.9458 22.6967 20.8212 20.8213ZM13.75 10V17.5M10 13.75H17.5" stroke="#89ACF2" stroke-width="3" stroke-linecap="round" stroke-linejoin="round"/>
</svg>
