<svg width="24" height="25" viewBox="0 0 24 25" fill="none" xmlns="http://www.w3.org/2000/svg">
<path fill-rule="evenodd" clip-rule="evenodd" d="M21.546 5.20384C21.8272 5.48513 21.9852 5.86659 21.9852 6.26434C21.9852 6.66209 21.8272 7.04355 21.546 7.32484L10.303 18.5678C10.1544 18.7165 9.97805 18.8343 9.7839 18.9148C9.58976 18.9952 9.38167 19.0366 9.17153 19.0366C8.96138 19.0366 8.75329 18.9952 8.55915 18.9148C8.365 18.8343 8.1886 18.7165 8.04003 18.5678L2.45403 12.9828C2.31076 12.8445 2.19649 12.679 2.11787 12.4959C2.03926 12.3129 1.99788 12.1161 1.99615 11.9169C1.99442 11.7178 2.03237 11.5203 2.10779 11.3359C2.18322 11.1516 2.29459 10.9841 2.43543 10.8432C2.57627 10.7024 2.74375 10.591 2.92809 10.5156C3.11244 10.4402 3.30996 10.4022 3.50913 10.404C3.7083 10.4057 3.90513 10.4471 4.08813 10.5257C4.27114 10.6043 4.43666 10.7186 4.57503 10.8618L9.17103 15.4578L19.424 5.20384C19.5633 5.06445 19.7287 4.95387 19.9108 4.87843C20.0928 4.80299 20.288 4.76416 20.485 4.76416C20.6821 4.76416 20.8772 4.80299 21.0593 4.87843C21.2413 4.95387 21.4067 5.06445 21.546 5.20384Z" fill="#54BF3C"/>
</svg>
