<svg width="20" height="21" viewBox="0 0 20 21" fill="none" xmlns="http://www.w3.org/2000/svg">
<path fill-rule="evenodd" clip-rule="evenodd" d="M14.6759 0.628045C11.5297 -0.0752338 8.26706 -0.0752338 5.12088 0.628045L4.78188 0.703045C3.8969 0.900907 3.08409 1.34023 2.43375 1.97221C1.78341 2.60419 1.321 3.40409 1.09788 4.28305C0.30038 7.42557 0.30038 10.7175 1.09788 13.86C1.31066 14.6983 1.74129 15.4654 2.34612 16.0836C2.95094 16.7018 3.70846 17.149 4.54188 17.38L5.00688 20.156C5.02173 20.2442 5.05993 20.3268 5.11752 20.3951C5.1751 20.4635 5.24997 20.5152 5.33431 20.5448C5.41865 20.5744 5.50939 20.5809 5.59708 20.5635C5.68476 20.5461 5.76619 20.5056 5.83288 20.446L8.56388 18.003C10.614 18.1282 12.6715 17.9642 14.6759 17.516L15.0159 17.441C15.9009 17.2432 16.7137 16.8039 17.364 16.1719C18.0144 15.5399 18.4768 14.74 18.6999 13.861C19.4973 10.7185 19.4973 7.42658 18.6999 4.28405C18.4767 3.40496 18.0141 2.60498 17.3636 1.97298C16.7131 1.34099 15.9 0.901742 15.0149 0.704045L14.6759 0.628045ZM5.96488 4.20205C5.77903 4.17499 5.58952 4.2124 5.42788 4.30805H5.41388C5.03888 4.52805 4.70088 4.80505 4.41288 5.13105C4.17288 5.40805 4.04288 5.68805 4.00888 5.95805C3.98888 6.11805 4.00288 6.28005 4.04988 6.43304L4.06788 6.44305C4.33788 7.23604 4.68988 7.99904 5.11988 8.71704C5.67433 9.72553 6.35664 10.6582 7.14988 11.492L7.17388 11.526L7.21188 11.554L7.23488 11.581L7.26288 11.605C8.09961 12.4007 9.0345 13.0862 10.0449 13.645C11.1999 14.274 11.9009 14.571 12.3219 14.695V14.701C12.4449 14.739 12.5569 14.756 12.6699 14.756C13.0284 14.7295 13.3678 14.5838 13.6339 14.342C13.9589 14.054 14.2339 13.715 14.4479 13.338V13.331C14.6489 12.951 14.5809 12.593 14.2909 12.35C13.7084 11.8411 13.0785 11.389 12.4099 11C11.9619 10.757 11.5069 10.904 11.3229 11.15L10.9299 11.646C10.7279 11.892 10.3619 11.858 10.3619 11.858L10.3519 11.864C7.62088 11.167 6.89188 8.40205 6.89188 8.40205C6.89188 8.40205 6.85788 8.02604 7.11088 7.83404L7.60288 7.43805C7.83888 7.24605 8.00288 6.79205 7.74988 6.34405C7.36349 5.67481 6.91232 5.04512 6.40288 4.46405C6.29177 4.32729 6.13595 4.23415 5.96288 4.20105L5.96488 4.20205ZM10.5789 3.00005C10.4463 3.00005 10.3191 3.05272 10.2253 3.14649C10.1316 3.24026 10.0789 3.36744 10.0789 3.50005C10.0789 3.63265 10.1316 3.75983 10.2253 3.8536C10.3191 3.94737 10.4463 4.00005 10.5789 4.00005C11.8439 4.00005 12.8939 4.41305 13.7249 5.20505C14.1519 5.63805 14.4849 6.15105 14.7029 6.71305C14.9219 7.27605 15.0219 7.87704 14.9959 8.47904C14.9931 8.54471 15.0033 8.61027 15.0259 8.67198C15.0485 8.7337 15.083 8.79037 15.1275 8.83875C15.2173 8.93646 15.3423 8.99448 15.4749 9.00004C15.6075 9.00561 15.7369 8.95828 15.8346 8.86845C15.9323 8.77862 15.9903 8.65365 15.9959 8.52104C16.0269 7.78053 15.904 7.04163 15.6349 6.35105C15.3646 5.65718 14.9548 5.02616 14.4309 4.49705L14.4209 4.48705C13.3899 3.50205 12.0849 3.00005 10.5789 3.00005ZM10.5449 4.64405C10.4123 4.64405 10.2851 4.69672 10.1913 4.79049C10.0976 4.88426 10.0449 5.01144 10.0449 5.14405C10.0449 5.27665 10.0976 5.40383 10.1913 5.4976C10.2851 5.59137 10.4123 5.64405 10.5449 5.64405H10.5619C11.4739 5.70905 12.1379 6.01305 12.6029 6.51205C13.0799 7.02605 13.3269 7.66504 13.3079 8.45504C13.3048 8.58765 13.3546 8.71604 13.4462 8.81197C13.5378 8.90789 13.6638 8.9635 13.7964 8.96655C13.929 8.96959 14.0574 8.91984 14.1533 8.82823C14.2492 8.73662 14.3048 8.61065 14.3079 8.47804C14.3319 7.44104 13.9979 6.54605 13.3359 5.83205V5.83005C12.6589 5.10405 11.7299 4.72005 10.6119 4.64505L10.5949 4.64305L10.5449 4.64405ZM10.5259 6.31905C10.459 6.31314 10.3916 6.32078 10.3277 6.34151C10.2638 6.36223 10.2047 6.39562 10.154 6.43968C10.1033 6.48374 10.062 6.53757 10.0325 6.59794C10.0031 6.65832 9.98611 6.72401 9.98261 6.79109C9.97912 6.85818 9.98917 6.92528 10.0122 6.98839C10.0352 7.0515 10.0707 7.10932 10.1165 7.15841C10.1624 7.2075 10.2177 7.24685 10.2791 7.2741C10.3405 7.30136 10.4067 7.31596 10.4739 7.31705C10.8919 7.33905 11.1589 7.46504 11.3269 7.63405C11.4959 7.80405 11.6219 8.07704 11.6449 8.50404C11.6461 8.57114 11.6609 8.63731 11.6882 8.69859C11.7156 8.75987 11.755 8.81501 11.8041 8.86074C11.8533 8.90646 11.9111 8.94183 11.9742 8.96473C12.0372 8.98763 12.1043 8.9976 12.1713 8.99404C12.2383 8.99048 12.3039 8.97347 12.3642 8.94402C12.4245 8.91456 12.4783 8.87327 12.5223 8.8226C12.5663 8.77193 12.5997 8.71292 12.6204 8.64908C12.6411 8.58525 12.6487 8.5179 12.6429 8.45105C12.6109 7.85105 12.4229 7.32104 12.0379 6.93105C11.6509 6.54105 11.1239 6.35105 10.5259 6.31905Z" fill="#014E86"/>
</svg>
