<svg width="50" height="50" viewBox="0 0 50 50" fill="none" xmlns="http://www.w3.org/2000/svg">
<path d="M43.7499 43.7499L34.702 34.702M34.702 34.702C36.2497 33.1543 37.4774 31.317 38.315 29.2948C39.1526 27.2727 39.5837 25.1054 39.5837 22.9166C39.5837 20.7279 39.1526 18.5605 38.315 16.5384C37.4774 14.5162 36.2497 12.6789 34.702 11.1312C33.1543 9.58351 31.317 8.35582 29.2948 7.51822C27.2727 6.68062 25.1054 6.24951 22.9166 6.24951C20.7279 6.24951 18.5605 6.68062 16.5384 7.51822C14.5162 8.35582 12.6789 9.58351 11.1312 11.1312C8.0055 14.2569 6.24951 18.4962 6.24951 22.9166C6.24951 27.337 8.0055 31.5763 11.1312 34.702C14.2569 37.8277 18.4962 39.5837 22.9166 39.5837C27.337 39.5837 31.5763 37.8277 34.702 34.702ZM22.9166 16.6666V29.1666M16.6666 22.9166H29.1666" stroke="#C8C8C8" stroke-width="4" stroke-linecap="round" stroke-linejoin="round"/>
</svg>
